<svg width="4646" height="1479" xmlns="http://www.w3.org/2000/svg" xmlns:xlink="http://www.w3.org/1999/xlink" xml:space="preserve" overflow="hidden"><defs><clipPath id="clip0"><rect x="0" y="579" width="4646" height="1479"/></clipPath></defs><g clip-path="url(#clip0)" transform="matrix(1 0 0 1 0 -579)"><rect x="0" y="579" width="4400" height="1284" fill="#262626"/><path d="M398 881C398 846.758 425.758 819 460 819 494.242 819 522 846.758 522 881 522 915.242 494.242 943 460 943 425.758 943 398 915.242 398 881Z" fill="#E84545" fill-rule="evenodd"/><path d="M442 987.5C442 979.492 448.492 973 456.5 973 464.508 973 471 979.492 471 987.5 471 995.508 464.508 1002 456.5 1002 448.492 1002 442 995.508 442 987.5Z" fill="#E84545" fill-rule="evenodd"/><path d="M112 1148.5C112 1140.49 118.492 1134 126.5 1134 134.508 1134 141 1140.49 141 1148.5 141 1156.51 134.508 1163 126.5 1163 118.492 1163 112 1156.51 112 1148.5Z" fill="#E84545" fill-rule="evenodd"/><path d="M367 1008.5C367 996.626 376.626 987 388.5 987 400.374 987 410 996.626 410 1008.5 410 1020.37 400.374 1030 388.5 1030 376.626 1030 367 1020.37 367 1008.5Z" fill="#E84545" fill-rule="evenodd"/><path d="M127 1080.5C127 1068.63 136.85 1059 149 1059 161.15 1059 171 1068.63 171 1080.5 171 1092.37 161.15 1102 149 1102 136.85 1102 127 1092.37 127 1080.5Z" fill="#E84545" fill-rule="evenodd"/><path d="M174 992.5C174 972.894 189.894 957 209.5 957 229.106 957 245 972.894 245 992.5 245 1012.11 229.106 1028 209.5 1028 189.894 1028 174 1012.11 174 992.5Z" fill="#E84545" fill-rule="evenodd"/><path d="M265 1065.5C265 1045.89 280.894 1030 300.5 1030 320.106 1030 336 1045.89 336 1065.5 336 1085.11 320.106 1101 300.5 1101 280.894 1101 265 1085.11 265 1065.5Z" fill="#E84545" fill-rule="evenodd"/><path d="M265 914C265 885.834 287.61 863 315.5 863 343.39 863 366 885.834 366 914 366 942.167 343.39 965 315.5 965 287.61 965 265 942.167 265 914Z" fill="#E84545" fill-rule="evenodd"/><path d="M171 1170.5C171 1142.61 193.833 1120 222 1120 250.166 1120 273 1142.61 273 1170.5 273 1198.39 250.166 1221 222 1221 193.833 1221 171 1198.39 171 1170.5Z" fill="#E84545" fill-rule="evenodd"/><path d="M902.5 1090C936.466 1090 964 1117.53 964 1151.5 964 1185.47 936.466 1213 902.5 1213 868.535 1213 841 1185.47 841 1151.5 841 1117.53 868.535 1090 902.5 1090Z" fill="#E84545" fill-rule="evenodd"/><path d="M791.5 1134C799.508 1134 806 1140.49 806 1148.5 806 1156.51 799.508 1163 791.5 1163 783.492 1163 777 1156.51 777 1148.5 777 1140.49 783.492 1134 791.5 1134Z" fill="#E84545" fill-rule="evenodd"/><path d="M638.5 804C646.508 804 653 810.492 653 818.5 653 826.508 646.508 833 638.5 833 630.492 833 624 826.508 624 818.5 624 810.492 630.492 804 638.5 804Z" fill="#E84545" fill-rule="evenodd"/><path d="M771 1058C783.15 1058 793 1067.85 793 1080 793 1092.15 783.15 1102 771 1102 758.85 1102 749 1092.15 749 1080 749 1067.85 758.85 1058 771 1058Z" fill="#E84545" fill-rule="evenodd"/><path d="M705 818C717.15 818 727 827.85 727 840 727 852.15 717.15 862 705 862 692.85 862 683 852.15 683 840 683 827.85 692.85 818 705 818Z" fill="#E84545" fill-rule="evenodd"/><path d="M791.5 866C811.106 866 827 881.894 827 901.5 827 921.106 811.106 937 791.5 937 771.894 937 756 921.106 756 901.5 756 881.894 771.894 866 791.5 866Z" fill="#E84545" fill-rule="evenodd"/><path d="M715.5 956C735.106 956 751 971.894 751 991.5 751 1011.11 735.106 1027 715.5 1027 695.894 1027 680 1011.11 680 991.5 680 971.894 695.894 956 715.5 956Z" fill="#E84545" fill-rule="evenodd"/><path d="M869.5 956C897.391 956 920 978.609 920 1006.5 920 1034.39 897.391 1057 869.5 1057 841.61 1057 819 1034.39 819 1006.5 819 978.609 841.61 956 869.5 956Z" fill="#E84545" fill-rule="evenodd"/><path d="M610.5 863C638.39 863 661 885.61 661 913.5 661 941.391 638.39 964 610.5 964 582.609 964 560 941.391 560 913.5 560 885.61 582.609 863 610.5 863Z" fill="#E84545" fill-rule="evenodd"/><path d="M694 1593C694 1627.24 666.242 1655 632 1655 597.758 1655 570 1627.24 570 1593 570 1558.76 597.758 1531 632 1531 666.242 1531 694 1558.76 694 1593Z" fill="#E84545" fill-rule="evenodd"/><path d="M651 1486.5C651 1494.51 644.508 1501 636.5 1501 628.492 1501 622 1494.51 622 1486.5 622 1478.49 628.492 1472 636.5 1472 644.508 1472 651 1478.49 651 1486.5Z" fill="#E84545" fill-rule="evenodd"/><path d="M981 1325.5C981 1333.51 974.508 1340 966.5 1340 958.492 1340 952 1333.51 952 1325.5 952 1317.49 958.492 1311 966.5 1311 974.508 1311 981 1317.49 981 1325.5Z" fill="#E84545" fill-rule="evenodd"/><path d="M725 1465.5C725 1477.37 715.374 1487 703.5 1487 691.626 1487 682 1477.37 682 1465.5 682 1453.63 691.626 1444 703.5 1444 715.374 1444 725 1453.63 725 1465.5Z" fill="#E84545" fill-rule="evenodd"/><path d="M965 1393.5C965 1405.37 955.374 1415 943.5 1415 931.626 1415 922 1405.37 922 1393.5 922 1381.63 931.626 1372 943.5 1372 955.374 1372 965 1381.63 965 1393.5Z" fill="#E84545" fill-rule="evenodd"/><path d="M918 1480.5C918 1500.11 902.106 1516 882.5 1516 862.894 1516 847 1500.11 847 1480.5 847 1460.89 862.894 1445 882.5 1445 902.106 1445 918 1460.89 918 1480.5Z" fill="#E84545" fill-rule="evenodd"/><path d="M828 1408.5C828 1428.11 812.106 1444 792.5 1444 772.894 1444 757 1428.11 757 1408.5 757 1388.89 772.894 1373 792.5 1373 812.106 1373 828 1388.89 828 1408.5Z" fill="#E84545" fill-rule="evenodd"/><path d="M828 1560C828 1588.17 805.167 1611 777 1611 748.833 1611 726 1588.17 726 1560 726 1531.83 748.833 1509 777 1509 805.167 1509 828 1531.83 828 1560Z" fill="#E84545" fill-rule="evenodd"/><path d="M921 1303.5C921 1331.39 898.39 1354 870.5 1354 842.609 1354 820 1331.39 820 1303.5 820 1275.61 842.609 1253 870.5 1253 898.39 1253 921 1275.61 921 1303.5Z" fill="#E84545" fill-rule="evenodd"/><path d="M190 1384C155.758 1384 128 1356.24 128 1322 128 1287.76 155.758 1260 190 1260 224.242 1260 252 1287.76 252 1322 252 1356.24 224.242 1384 190 1384Z" fill="#E84545" fill-rule="evenodd"/><path d="M300.5 1340C292.492 1340 286 1333.51 286 1325.5 286 1317.49 292.492 1311 300.5 1311 308.508 1311 315 1317.49 315 1325.5 315 1333.51 308.508 1340 300.5 1340Z" fill="#E84545" fill-rule="evenodd"/><path d="M453.5 1670C445.492 1670 439 1663.51 439 1655.5 439 1647.49 445.492 1641 453.5 1641 461.508 1641 468 1647.49 468 1655.5 468 1663.51 461.508 1670 453.5 1670Z" fill="#E84545" fill-rule="evenodd"/><path d="M321.5 1416C309.626 1416 300 1406.15 300 1394 300 1381.85 309.626 1372 321.5 1372 333.374 1372 343 1381.85 343 1394 343 1406.15 333.374 1416 321.5 1416Z" fill="#E84545" fill-rule="evenodd"/><path d="M387.5 1655C375.626 1655 366 1645.37 366 1633.5 366 1621.63 375.626 1612 387.5 1612 399.374 1612 409 1621.63 409 1633.5 409 1645.37 399.374 1655 387.5 1655Z" fill="#E84545" fill-rule="evenodd"/><path d="M300.5 1608C280.894 1608 265 1592.11 265 1572.5 265 1552.89 280.894 1537 300.5 1537 320.106 1537 336 1552.89 336 1572.5 336 1592.11 320.106 1608 300.5 1608Z" fill="#E84545" fill-rule="evenodd"/><path d="M376.5 1518C356.894 1518 341 1502.11 341 1482.5 341 1462.89 356.894 1447 376.5 1447 396.106 1447 412 1462.89 412 1482.5 412 1502.11 396.106 1518 376.5 1518Z" fill="#E84545" fill-rule="evenodd"/><path d="M222.5 1518C194.61 1518 172 1495.17 172 1467 172 1438.83 194.61 1416 222.5 1416 250.39 1416 273 1438.83 273 1467 273 1495.17 250.39 1518 222.5 1518Z" fill="#E84545" fill-rule="evenodd"/><path d="M481.5 1611C453.61 1611 431 1588.39 431 1560.5 431 1532.61 453.61 1510 481.5 1510 509.391 1510 532 1532.61 532 1560.5 532 1588.39 509.391 1611 481.5 1611Z" fill="#E84545" fill-rule="evenodd"/><text fill="#FFFFFF" font-family="Corbel,Corbel_MSFontService,sans-serif" font-weight="700" font-size="688" transform="matrix(1 0 0 1 1188.3 1464)">BEN</text><text fill="#FFFFFF" font-family="Corbel Light,Corbel Light_MSFontService,sans-serif" font-weight="300" font-size="688" transform="matrix(1 0 0 1 2507.15 1464)">DROZ</text></g></svg>