<svg width="4534" height="1445" xmlns="http://www.w3.org/2000/svg" xmlns:xlink="http://www.w3.org/1999/xlink" overflow="hidden"><defs><clipPath id="clip0"><rect x="112" y="614" width="4534" height="1445"/></clipPath></defs><g clip-path="url(#clip0)" transform="translate(-112 -614)"><path d="M398 881.5C398 847.534 425.758 820 460 820 494.242 820 522 847.534 522 881.5 522 915.465 494.242 943 460 943 425.758 943 398 915.465 398 881.5Z" fill="#E84545" fill-rule="evenodd"/><path d="M442 987.5C442 979.492 448.492 973 456.5 973 464.508 973 471 979.492 471 987.5 471 995.508 464.508 1002 456.5 1002 448.492 1002 442 995.508 442 987.5Z" fill="#E84545" fill-rule="evenodd"/><path d="M112 1148.5C112 1140.49 118.492 1134 126.5 1134 134.508 1134 141 1140.49 141 1148.5 141 1156.51 134.508 1163 126.5 1163 118.492 1163 112 1156.51 112 1148.5Z" fill="#E84545" fill-rule="evenodd"/><path d="M367 1008.5C367 996.626 376.626 987 388.5 987 400.374 987 410 996.626 410 1008.5 410 1020.37 400.374 1030 388.5 1030 376.626 1030 367 1020.37 367 1008.5Z" fill="#E84545" fill-rule="evenodd"/><path d="M127 1081C127 1068.85 136.85 1059 149 1059 161.15 1059 171 1068.85 171 1081 171 1093.15 161.15 1103 149 1103 136.85 1103 127 1093.15 127 1081Z" fill="#E84545" fill-rule="evenodd"/><path d="M174 993.5C174 973.894 189.894 958 209.5 958 229.106 958 245 973.894 245 993.5 245 1013.11 229.106 1029 209.5 1029 189.894 1029 174 1013.11 174 993.5Z" fill="#E84545" fill-rule="evenodd"/><path d="M265 1065.5C265 1045.89 280.894 1030 300.5 1030 320.106 1030 336 1045.89 336 1065.5 336 1085.11 320.106 1101 300.5 1101 280.894 1101 265 1085.11 265 1065.5Z" fill="#E84545" fill-rule="evenodd"/><path d="M265 914.5C265 886.609 287.61 864 315.5 864 343.39 864 366 886.609 366 914.5 366 942.39 343.39 965 315.5 965 287.61 965 265 942.39 265 914.5Z" fill="#E84545" fill-rule="evenodd"/><path d="M171 1170.5C171 1142.61 193.833 1120 222 1120 250.166 1120 273 1142.61 273 1170.5 273 1198.39 250.166 1221 222 1221 193.833 1221 171 1198.39 171 1170.5Z" fill="#E84545" fill-rule="evenodd"/><path d="M902.5 1090C936.465 1090 964 1117.76 964 1152 964 1186.24 936.465 1214 902.5 1214 868.535 1214 841 1186.24 841 1152 841 1117.76 868.535 1090 902.5 1090Z" fill="#E84545" fill-rule="evenodd"/><path d="M791.5 1134C799.508 1134 806 1140.49 806 1148.5 806 1156.51 799.508 1163 791.5 1163 783.492 1163 777 1156.51 777 1148.5 777 1140.49 783.492 1134 791.5 1134Z" fill="#E84545" fill-rule="evenodd"/><path d="M638.5 804C646.508 804 653 810.492 653 818.5 653 826.508 646.508 833 638.5 833 630.492 833 624 826.508 624 818.5 624 810.492 630.492 804 638.5 804Z" fill="#E84545" fill-rule="evenodd"/><path d="M771 1059C783.15 1059 793 1068.63 793 1080.5 793 1092.37 783.15 1102 771 1102 758.85 1102 749 1092.37 749 1080.5 749 1068.63 758.85 1059 771 1059Z" fill="#E84545" fill-rule="evenodd"/><path d="M705 819C717.15 819 727 828.626 727 840.5 727 852.374 717.15 862 705 862 692.85 862 683 852.374 683 840.5 683 828.626 692.85 819 705 819Z" fill="#E84545" fill-rule="evenodd"/><path d="M791.5 866C811.106 866 827 881.894 827 901.5 827 921.106 811.106 937 791.5 937 771.894 937 756 921.106 756 901.5 756 881.894 771.894 866 791.5 866Z" fill="#E84545" fill-rule="evenodd"/><path d="M715.5 956C735.106 956 751 971.894 751 991.5 751 1011.11 735.106 1027 715.5 1027 695.894 1027 680 1011.11 680 991.5 680 971.894 695.894 956 715.5 956Z" fill="#E84545" fill-rule="evenodd"/><path d="M869.5 956C897.39 956 920 978.833 920 1007 920 1035.17 897.39 1058 869.5 1058 841.61 1058 819 1035.17 819 1007 819 978.833 841.61 956 869.5 956Z" fill="#E84545" fill-rule="evenodd"/><path d="M610.5 863C638.39 863 661 885.61 661 913.5 661 941.391 638.39 964 610.5 964 582.609 964 560 941.391 560 913.5 560 885.61 582.609 863 610.5 863Z" fill="#E84545" fill-rule="evenodd"/><path d="M694 1593C694 1627.24 666.242 1655 632 1655 597.758 1655 570 1627.24 570 1593 570 1558.76 597.758 1531 632 1531 666.242 1531 694 1558.76 694 1593Z" fill="#E84545" fill-rule="evenodd"/><path d="M651 1486.5C651 1494.51 644.508 1501 636.5 1501 628.492 1501 622 1494.51 622 1486.5 622 1478.49 628.492 1472 636.5 1472 644.508 1472 651 1478.49 651 1486.5Z" fill="#E84545" fill-rule="evenodd"/><path d="M981 1326C981 1333.73 974.508 1340 966.5 1340 958.492 1340 952 1333.73 952 1326 952 1318.27 958.492 1312 966.5 1312 974.508 1312 981 1318.27 981 1326Z" fill="#E84545" fill-rule="evenodd"/><path d="M725 1466C725 1478.15 715.374 1488 703.5 1488 691.626 1488 682 1478.15 682 1466 682 1453.85 691.626 1444 703.5 1444 715.374 1444 725 1453.85 725 1466Z" fill="#E84545" fill-rule="evenodd"/><path d="M965 1393.5C965 1405.37 955.374 1415 943.5 1415 931.626 1415 922 1405.37 922 1393.5 922 1381.63 931.626 1372 943.5 1372 955.374 1372 965 1381.63 965 1393.5Z" fill="#E84545" fill-rule="evenodd"/><path d="M918 1481.5C918 1501.11 902.106 1517 882.5 1517 862.894 1517 847 1501.11 847 1481.5 847 1461.89 862.894 1446 882.5 1446 902.106 1446 918 1461.89 918 1481.5Z" fill="#E84545" fill-rule="evenodd"/><path d="M828 1408.5C828 1428.11 812.106 1444 792.5 1444 772.894 1444 757 1428.11 757 1408.5 757 1388.89 772.894 1373 792.5 1373 812.106 1373 828 1388.89 828 1408.5Z" fill="#E84545" fill-rule="evenodd"/><path d="M828 1560.5C828 1588.39 805.167 1611 777 1611 748.833 1611 726 1588.39 726 1560.5 726 1532.61 748.833 1510 777 1510 805.167 1510 828 1532.61 828 1560.5Z" fill="#E84545" fill-rule="evenodd"/><path d="M921 1304C921 1332.17 898.39 1355 870.5 1355 842.609 1355 820 1332.17 820 1304 820 1275.83 842.609 1253 870.5 1253 898.39 1253 921 1275.83 921 1304Z" fill="#E84545" fill-rule="evenodd"/><path d="M190 1384C155.758 1384 128 1356.47 128 1322.5 128 1288.53 155.758 1261 190 1261 224.241 1261 252 1288.53 252 1322.5 252 1356.47 224.241 1384 190 1384Z" fill="#E84545" fill-rule="evenodd"/><path d="M300.5 1340C292.492 1340 286 1333.51 286 1325.5 286 1317.49 292.492 1311 300.5 1311 308.508 1311 315 1317.49 315 1325.5 315 1333.51 308.508 1340 300.5 1340Z" fill="#E84545" fill-rule="evenodd"/><path d="M453.5 1670C445.492 1670 439 1663.51 439 1655.5 439 1647.49 445.492 1641 453.5 1641 461.508 1641 468 1647.49 468 1655.5 468 1663.51 461.508 1670 453.5 1670Z" fill="#E84545" fill-rule="evenodd"/><path d="M321.5 1416C309.626 1416 300 1406.15 300 1394 300 1381.85 309.626 1372 321.5 1372 333.374 1372 343 1381.85 343 1394 343 1406.15 333.374 1416 321.5 1416Z" fill="#E84545" fill-rule="evenodd"/><path d="M387.5 1656C375.626 1656 366 1646.15 366 1634 366 1621.85 375.626 1612 387.5 1612 399.374 1612 409 1621.85 409 1634 409 1646.15 399.374 1656 387.5 1656Z" fill="#E84545" fill-rule="evenodd"/><path d="M300.5 1608C280.894 1608 265 1592.11 265 1572.5 265 1552.89 280.894 1537 300.5 1537 320.106 1537 336 1552.89 336 1572.5 336 1592.11 320.106 1608 300.5 1608Z" fill="#E84545" fill-rule="evenodd"/><path d="M376.5 1518C356.894 1518 341 1502.11 341 1482.5 341 1462.89 356.894 1447 376.5 1447 396.106 1447 412 1462.89 412 1482.5 412 1502.11 396.106 1518 376.5 1518Z" fill="#E84545" fill-rule="evenodd"/><path d="M222.5 1518C194.609 1518 172 1495.39 172 1467.5 172 1439.61 194.609 1417 222.5 1417 250.39 1417 273 1439.61 273 1467.5 273 1495.39 250.39 1518 222.5 1518Z" fill="#E84545" fill-rule="evenodd"/><path d="M481.5 1612C453.61 1612 431 1589.17 431 1561 431 1532.83 453.61 1510 481.5 1510 509.391 1510 532 1532.83 532 1561 532 1589.17 509.391 1612 481.5 1612Z" fill="#E84545" fill-rule="evenodd"/><text font-family="Corbel,Corbel_MSFontService,sans-serif" font-weight="700" font-size="688" transform="matrix(1 0 0 1 1188.3 1465)">BEN<tspan font-family="Corbel Light,Corbel Light_MSFontService,sans-serif" font-weight="300" font-size="688" x="1318.85" y="0">DROZ</tspan></text></g></svg>